<svg xmlns="http://www.w3.org/2000/svg" width="340" height="410" viewBox="0 0 340 410"><defs><style>.cls-1{fill:#ea1515;}.cls-2{fill:#ffff03;}.cls-3{fill:#353535;}.cls-4{fill:#422803;}.cls-5{fill:#424242;}.cls-6{fill:#4f4f4f;}.cls-7{fill:#d4008d;}.cls-8{fill:#ddd;}.cls-9{fill:#fcfcfc;}</style></defs><g id="Layer_2" data-name="Layer 2"><polygon class="cls-1" points="227.78 43.21 223.15 2.65 240.71 39.5 260.81 3.97 253.36 44.1 290.5 27.17 260.89 55.26 300.89 63.4 260.42 68.71 288 98.8 252.13 79.32 256.75 119.87 239.19 83.03 219.09 118.56 226.54 78.42 189.4 95.35 219.02 67.26 179.02 59.13 219.49 53.81 191.91 23.72 227.78 43.21"/><polygon class="cls-2" points="232.09 49.6 229.1 23.39 240.44 47.2 253.43 24.25 248.62 50.18 272.61 39.24 253.48 57.39 279.32 62.64 253.17 66.08 270.99 85.52 247.82 72.93 250.81 99.13 239.46 75.32 226.48 98.28 231.29 72.35 207.29 83.29 226.43 65.14 200.59 59.88 226.73 56.45 208.91 37.01 232.09 49.6"/><path class="cls-3" d="M58.26,241.59l-20.78,5s-15.85,0-14.08,24.66L15.76,301.8l14.09,3.53s13.5-19.12,12.92-31.87,8.46-3.94,8.46-3.94Z"/><path class="cls-4" d="M244.49,158.42s32.81-23.88,4.83-45.72c-1.83-1.43-4.63-3.65-5.51-5.81-1.89-4.62-2.49-9.7,1.1-14.09,4-4.88-7.54-21-13.19-27.31a4.39,4.39,0,0,1,1-6.64c4.57-2.88,12.53-5.37,21.22,3.32,11.21,11.21,10.84,23.31,10.34,27.75-.1.9.26,6.14.93,6.74,7,6.26,42.68,39.45-.88,73C216.33,206.58,244.49,158.42,244.49,158.42Z"/><path class="cls-5" d="M269.4,214.51s12.68-10.28,14.44-24.95-67.51-44.62-67.51-44.62-9.66-7.5-22.73,20.9S269.4,214.51,269.4,214.51Z"/><path class="cls-6" d="M299.69,288.18c0,62.9-56.45,119.17-126.09,119.17S47.5,351.08,47.5,288.18c0-35.05,15-79.49,42.62-100.39,21.9-16.6,40.19-26.41,71-26.41C230.79,161.38,299.69,225.28,299.69,288.18Z"/><circle cx="19.55" cy="315.25" r="15.76"/><path class="cls-3" d="M327.34,325.59H312.19S306.07,291,297,296.24l-.32.18c-9.29,5.05-33.42,5.27-33.42,5.27s-15.11-3.54-11.4-23.81,45.14-4,45.14-4,30.3,6.5,27.36,28.81Z"/><circle cx="320.45" cy="331.01" r="15.76"/><rect x="112.39" y="325.54" width="57.66" height="19.64" rx="9.82" transform="translate(35.34 -12.78) rotate(5.92)"/><path d="M140.61,279.14A44,44,0,0,1,136.76,293,8.71,8.71,0,1,0,127,304.53a12.66,12.66,0,0,1-7.85,1.78c-10-1.15-16.59-15.19-14.72-31.36s11.49-28.33,21.49-27.17S142.49,263,140.61,279.14Z"/><path d="M197.12,284.12a44.44,44.44,0,0,1-3.85,13.82,8.71,8.71,0,1,0-9.79,11.57,12.64,12.64,0,0,1-7.85,1.78c-10-1.15-16.58-15.19-14.71-31.36s11.49-28.33,21.48-27.17S199,268,197.12,284.12Z"/><polygon points="140.93 251.02 120.09 231.99 130.63 224.04 148.32 249.47 140.93 251.02"/><polygon points="164.37 252.68 190.26 241.44 182.87 230.5 157.89 248.81 164.37 252.68"/><circle class="cls-7" cx="79.32" cy="306.39" r="5.08"/><circle class="cls-7" cx="214.05" cy="323.87" r="5.08"/><rect class="cls-8" x="115.49" y="326.6" width="51.42" height="17.51" rx="8.76" transform="translate(35.34 -12.77) rotate(5.92)"/><polygon points="158.37 327.7 158.31 328.33 157.41 336.99 157.4 337.08 156.5 345.75 156.44 346.37 156.34 346.36 156.41 345.74 157.3 337.07 157.31 336.98 158.21 328.32 158.28 327.69 158.37 327.7"/><polygon points="147.72 326.6 147.66 327.22 146.76 335.88 146.76 335.89 146.75 335.98 145.85 344.64 145.79 345.26 145.69 345.26 145.76 344.63 146.66 335.97 146.67 335.88 147.56 327.21 147.63 326.59 147.72 326.6"/><polygon points="137.04 325.49 136.97 326.11 136.07 334.78 136.07 334.78 136.06 334.88 135.17 343.53 135.1 344.16 135.01 344.15 135.07 343.52 135.97 334.86 135.98 334.77 136.88 326.11 136.88 326.1 136.94 325.48 137.04 325.49"/><polygon points="127.12 324.46 127.06 325.09 126.16 333.75 126.15 333.85 125.25 342.5 125.18 343.13 125.09 343.12 125.15 342.5 126.05 333.83 126.06 333.74 126.97 325.08 127.03 324.45 127.12 324.46"/><polygon points="167.56 338.05 167.56 338.14 166.77 338.06 157.4 337.08 157.3 337.07 146.75 335.98 146.66 335.97 136.06 334.88 135.97 334.86 126.15 333.85 126.05 333.83 115.63 332.75 114.84 332.67 114.86 332.58 115.63 332.66 126.06 333.74 126.16 333.75 135.98 334.77 136.07 334.78 136.07 334.78 146.67 335.88 146.76 335.88 146.76 335.89 157.31 336.98 157.41 336.99 166.78 337.96 167.56 338.05"/><path class="cls-9" d="M137.8,173s-54.06,15.05-71.1,59.63l-8.44,35s25.88-68.85,83.84-83.85c0,0,9.14-1.48,7.67-8.6S137.8,173,137.8,173Z"/><path class="cls-9" d="M209.2,155.13c-2.42,3.59-5.27,11.14-2.84,12.77s9.22-3.26,11.63-6.86,2.41-7.83,0-9.46S211.61,151.53,209.2,155.13Z"/></g></svg>